<mxfile host="app.diagrams.net" modified="2023-06-29T21:49:43.743Z" agent="Mozilla/5.0 (Windows NT 10.0; Win64; x64) AppleWebKit/537.36 (KHTML, like Gecko) Chrome/114.0.0.0 Safari/537.36" etag="PbkLHQ2ZxBEOaA_nF1np" version="21.5.2" type="github">
  <diagram id="SNHthdlhotw0qoZp2tnL" name="PÃ¡gina-4">
    <mxGraphModel dx="1050" dy="483" grid="1" gridSize="10" guides="1" tooltips="1" connect="1" arrows="1" fold="1" page="1" pageScale="1" pageWidth="827" pageHeight="1169" math="0" shadow="0">
      <root>
        <mxCell id="0" />
        <mxCell id="1" parent="0" />
        <mxCell id="_ELMGcNG5gGrSkhOwDCZ-1" value="Socios Claves" style="rounded=0;whiteSpace=wrap;html=1;fillColor=#FF8000;strokeColor=#000000;" vertex="1" parent="1">
          <mxGeometry x="70" y="80" width="130" height="40" as="geometry" />
        </mxCell>
        <mxCell id="_ELMGcNG5gGrSkhOwDCZ-2" value="" style="image;aspect=fixed;html=1;points=[];align=center;fontSize=12;image=img/lib/azure2/azure_stack/User_Subscriptions.svg;" vertex="1" parent="1">
          <mxGeometry x="179.09" y="99.71" width="20.91" height="20.29" as="geometry" />
        </mxCell>
        <mxCell id="_ELMGcNG5gGrSkhOwDCZ-4" value="" style="rounded=0;whiteSpace=wrap;html=1;fillColor=#FFFFFF;strokeColor=#000000;" vertex="1" parent="1">
          <mxGeometry x="70" y="120" width="130" height="200" as="geometry" />
        </mxCell>
        <mxCell id="_ELMGcNG5gGrSkhOwDCZ-5" value="" style="shape=image;verticalLabelPosition=bottom;labelBackgroundColor=default;verticalAlign=top;aspect=fixed;imageAspect=0;image=data:image/png,iVBORw0KGgoAAAANSUhEUgAAAOEAAADhCAMAAAAJbSJIAAABs1BMVEX09PT///8An+MAQGywyQsAZK/09PP8/Pz39/f0+Pj6+vrfJSjrMjnr09T09Pbuv8AAWqizzd/mNTYBZariISPJ3uUAWaoDZK309fD28/T08/j///sAX60AXrCMss0AX6wAm+KpyQBfkL6kwdcAP20AoOEAOGcAXqkAnej19u4AMmP89fH39f4AoNuwyA0Al90AQmnR34wAXLHf6+/p8PLW3pnw89ru+PEAmOgAk9y800X8+O8AVZvr8cy+01HR3oy94+8AW5szdrArc65jlcEANmwAMl6nvsoAKFpiw9JkvNHQ7fSV1O2k2eh1we0ApdtfuN0aqtaFxOTe+PtRrNOj0OnH2HDk67nX5vpeteiO1Odgw+LQ33q60Eme3Om20TDH2WYFcr0ChMUVpMWKvkQAmvVCq6WUx+Vdsn3c5qvX4OPl7MC229iXyhXr79FIicF5o8bL5t1KrpOu175DrKVxoM8AUa2bs9Fsq80fbaHuvMUASqv0083mrqfmdXTbAADjiI/XNkbdKz9xjaFXdo4tV3mTqbkcUXNYd4u6xs18mKsAJV6bsb1GmbA6f6BVsMAtcZAisPYZAAAgAElEQVR4nO2diXvaWJbowQGhS7/RwFACSYjFLAb5gu0gxTghSWHjOE6IGydOUpWlJqnpV1NtpyfmLd3Vmdf9euZlK6dSPfMnv3OuWASIRQKnuuar81UlMQZJP539LsLj/a8unp/6As5dfiH8+csvhD9/+YXw5y+fjjAwKJ/svOdOGAgEec844YPnj3qehJPYhjjP8SrOi3BGOCvmOV3JeRAGnNJ15Vx0uXBCx8o7b1UultC19gYgF6vJBRIuBG/xkAsjnNM6RxgXZq0LIgwuFM+UBTEugnCB5jkoCzHW+Qkn83EemaM85VB+GsZ5CSfwlQhHOV4zmgd37hzUdVLlFOEnYJyTcJL+iEcu0eavy+tL6fX1y63bIpEk54TA+BMSTo4vkkyah0tLS0WUpXQ6f1iquiGcM+bMQTjRARWBcOQgD2DAmM/n4c+l9N0vOUJkF4jzmKp7wkl84HFVqt3bWrJKcWupdaRwLnzRM4+puiWcbKCcUqXkcCs/QLjUWireVyTiitC9qboknJYBOY/yeD1fHABMLxWXigeaS0DXanRFGJh6NTJfLy/ZSLpF3KTFjrjyRjeE00sYzkNaaTvCfLpec0/oSo3OCacrEITeKRbtCJfST9zE0r44V6NjwllqbE4x8vaAS/nynEW644DjlHAmQJkeDIeZvhjzETpGdEg4UxchlYKHaVs3BCnqc4QaJg6d0RHhTC7IjBQCad6OL5+fn9ChMzohnBEQUoU+RoEYTBdA6AjRAeGsgB6l9mB9DGB6Ke+2pnGLODvhrIAcEo7zwqViK9jTITbF+J/A4afOC3Fmwpk1CFZafTDeSC35sCRwJUHTJE0RJI/iEHHmkDoroZMsBoRjrbRcp733aaXNi1d8Pt/1S5tKyXFzPCvijISO0jSnHYwnVPqlt3JpednnW/Mt+9Yu1hTHAWhGxNkIHZgoitwcR1i8p3WUJXi0z9d8HVlevrLpvG+czRdnInQIWJWN1hjCsl7rxFKldIz66zE+25Qca3EmxFkIHQJ6JKV2zz6Yph/U5C7Hpq9PuAxafKY5N9RZEGcgdArokYnULKdHa5ry1l1SFUwMjr/oG5TlhwLnWI0zIM5A6BQQJXhYHNFifuuupZ7RrgwTLn9REhznxUUQugH0VI27NnH0y2oPQHmxPEJ4RVOcG+r8hO7mJBQq5s32Av+Af+WX1stNTe4TXhomRCVKguOIOrXTmEbosl/lqrQOBUwxzUZKy61yOn1oWPWjXBwh9Pme8y6GGqelxSmEjqNMl1AhNf1RulxkQ6ZbW5dbB3Rg+EJ5aEPo23Re2kyNNpMJ3QJ6uJKmSFL9EHSXTq/nn9QFwg1cvC3h8rEbJU5BnEzoEs8DpTQlEjH0+uMnTx7Xj0iNypwsCP3OCQjXRhGfllw1j+4JXc58EonSYPPBYWvp8noaQs36VvnXBzrlKbUQ2vkhOKKrE06MNpMI3dqozB/duVvO44RMng11l/Ppy+XDJqH9Fkk5XrZBvC65m9WYZKeTCJ2ehyOE46oCr9/Lrxch40MoxXk1+Bt+KBbXf31EBa4Tb4SXdoRfae4IJ1KM/5VTi+E8EldSSsaTMYPBoM9/lLVOSBW4ZzZ+eN3trMYEOx1P6CITCjKtPi4Xl/K2Y4mg0q3bpW5ZU7poQ+jSDz2TsuJ4QqfnUOQqofW7mACLNmU3jiRCafpEkQWcJOW4TWvz1JGH7mIpinNCx3dTI4r8uLxlgzagyPsGpA28IdLz0Xxx7Lwu7cpYOx1H6DyOKprxZL1oOw5ska30k1K1hG8XbJS4eQ5Tb+MIHZ+A05otnAOdokJgvEOxupEU7dIw4cOaeysda6djXncYZjhO0erlou2k6Ig7ftPUJNbqgp1a8JaXl19AreeecEywGUPo8OCCsvnlUjE/dhx4QI35siHLqMbS5vVln2U06qkgcXMQjkOxfdVhmJE9/JflFnQSsxAu5Yt3iIxKlErac8tY1HNZ8QjzTGrYBxtbQkdhhiO0VBPhyjtRJo39bv7y5ctjg06+3BTMRkMTjp/hKBSa6FOe4+YjtA82toTOVCgrmt5a6s+I5vPrX/sLhZT6dXep0Iih3quxBQtApGhfXF/zLT+7+LJU4rSS+2yBYqtEO0KHmYIIwt1vejkeuvqvVX8sEonF/OrlMa643jRH1QSlxG1+cfH59etXrjx/eOnapothDKvYKdGO0IkKCUeE2hPoHvra+rrgBzq/HxjVfCsNHVQei1JLGCou3aPQIGsl7cXTZx0jNYPN8+PN0hzxxk6JNoTOvFBW6MG6NcR8zfBMSeyQavPOIXaJg+V4y9A8gva5b7S/WH66qZQ0t8Zqo0QbQkdeSEtUtybC/D+pFsLYVZEKcu3oTmupbKkGysV0XZaeLts0UPjaRa3kEtBOiTaEzo6paI+gl+gHlD4eGmrlOwiaBFriewMFXbF4eGnNZ0eILy5fuQZ5wx3iLITOyhlZObCGk/LXKSuhP7UbZ9O8Mm2intOmBvPF3/z3HtAoJCvBJXe+OFrYjBI6O6LMDeT5rQEVAmEmbr7PoEeH68wXy1vlb/65w8X0CP9+9szUaL/AueRq1M1jo8SRVxxWpNK31lItX47EhnTYGUMEd6SP2axieqn1W1+P8NnTY8gRnKRpm8cXn/nW1rqqPXYZT0eUOELoCE8WjtLdKJMvlrce1RODOkwkO3dM4GSOPt6CgLOU/i0oy0R8+pIXhBIkDo4TBIHXXlzvkvt8XwjuhqWmETpKFVKVv9erRstbW/eNkyErjYr9kW6hWrqd/qa89NuOMa5BzBwc4pYU6cWVLuEzzV20GU4Yw4SOUgXRjvK9tU/p8qOqoKsDgGoj0CdU5GrwUesbMNE1lvc0VN7A8RTJU4Ikad6B5YfuXHE4YQwTOjoYoXfWzYIbQNMtBXSyA0mwmwwjsWiWWt4tyx699c9mPFl7URK0kQ0YikdTSi/WOq646WrzwgjRHEbqkYJ3OyaKdVmzyik0megRRiCSEoVaP8BJv/sXpsDrE1pd5SW7B1DCuRt5C0wkdHRMjta7HUUxv/6gJhOBGrEuYSyWeKVzxsCMk1C9jia6/FS2X0drFmull52A+nIRZjpE6PBY97a6kbR4GJcNmUo0HAJEVrhFX+m8QAc6vtLxGhCuPZSUCSuFBa10aY0VN0/dZYxJhA6TISn3CtIyMZ1GrtUboYLqT0ULbSITTpKELg0nKJvMxR5OsRTOE7xu1jqSq+1gwQmEzgyfa653A2mx3nU4RTCyu6eZ32ebNRKIx4M8R2ln+YWC6y/WfFemF2SKOaux9kJwM/jGTyB0eKQ73YItfb/Xuio0Hmxm26eNCMSanUwyrBNi3jhBeIlxdG1TEzw8yERENoG6fOx8cQbKeEInkVSSq9IhSxX5dPlyk2e7fcAo42K7EUqosZQKLXAqpYZCO22RgB6JR/ocm91jyOvNO/fuPa5X8UVqu94UbwbasztHDIwldGKknCLFccwCU/3WIWGzZopM9d3titpLFxhxUurV0E72KFhTtGdr0BlVS82761tbW8X1/L1qrUqo7dElVttckV0NTfFjCZ0cRSZy8zKz0nT+clNm4Z+SZKhf1MT8hVAqsnMKshN5lTSUL5YxA5Tq0AuXWy1ooraW6lDX2BIql5DwmeRuaGocoaN0L1flA3O5en7rPpQrsizQZiYU6eRCUF3otB0WDQg3gWCN6GIYfWv5oVK9W8yzXXt5XIpyULPJeRzUb9dYfaq5G14MjCF0lCsEjb9jNk75rQPc6SNQ/ZXKVBcDwEQjqXNBnu9dIM9rz3DgXhEHuv31po0O4UM4b8MI3QAO5AsroaNcIUjBJyZhsXVE2QsNtWueoZ0wYfubrR94iQu7pFL9soUQXFi21ZIgserVXWU64IhWQkcHITT4qEN4iOsmOek0FTP51FCSSFTwkIFQr7wAFV4qSU3rqE6xvH5kT6hcYYTzd/quCT0SfdRJhnWIB4qWDJkVaSx6qmMKGNyeLigStkUvS78TWpZRNyCs2wRTTpAUbIafuR3ltyd0ONTNBTslW1mXFEX7sqB2htfalI7maUjyD4GQkPpj6yLw9NJ63QaC80jCV0B4nXe5OyNgS+isKOU40jG2w1JV9gR2K52uPkk5wzOiF0EqPff5nldp9d7hkz5ifqts2BKa608vuiUM2hI67MaISZgu3oGuSRIL6IUxNZoNQJdos52ZU6Ca/lyBtv5+/i5kmaK5nOjynZqdIUqChCXsseKqahsINRZChwchpGwS1uHWkGSCpcFoG2oU2/vOCUB4CaowpbqUv9tax4xY3Lr8uFYavhtseljRsA2+5q4u9Vgd0T2hx9RhMY9Lm8kOI1R3CR0T4CUkxCFCWWmmi60nT+63WvcfN0vE9v2S8gUY6VcSt0hCh4FGkIMtFirKcImcDtVaLKZGdM+46TFOeW4SVs1d0OU7R/E4Dw2yJOPMKBEUASedCI4scp6qcAlyy8WS5JYwsABCGryfxqL0ERQ0fDikQi0TfUDH5S/IJ0+Xl7/AXgEC5cHlNHQkhw8UwgMZqUooFEo0SmVB4AWBylcwt7ifTLQjdNjfQ01zyNZwH4Ib8pAMI/5Khox9YgKo6VJvIFuW6ktbeSzAD+/UdYPUgFPmBRI0ms36wQOQ+v/4F9/ydZcVDUpwEYQKbhvJp7+FzBBsQzKMqCI17GswdCwOapqLJqFCKBhqGlcuptfzrUeHT+6BHB4+KufT8Cr+It36zf/8X9g6u9z6bUfoMFlIJa2OVlp8wAgL/kjqdIKhgw61teXnitJZo0CNw3Sx80CQvixZa4HiVvmAKEST3eREfn5CKKzY/q3igUkY80fDts1sTyAh+oJcdwab8g/K6/abhfuUW4/0miJNPuzshA4PIUsCuQxGyqquYDvljxWmPBCidGxd9cSVNONeftwet07FU1zKN7FiciGLIPQEW1t5M+EHk4lIYrc2eVSF03zLT/vz15pA6NGd1lYxzUbMh9elpIu4XLOYv1ulrgZr5icE4Z8A4VYdwiefrcQq2bGpwhRFuuh7Jg1EW4566k8urxd7u2u6Ul7ChdNb6+VHB4YbI7UjdLFsna9fzheZDvlwNBbS+cnRXfBoz3yfSwOFmMDVSkb9sFUubqV7iBhL1/P51uGdJqFUGReeJ0tgEYScDmaURkJOV/0NQZ5ICNcpX/KtaR7rahkMPDJPJb1+cO/wUQsr3Vb5N//xv2/hw8GCVIYs4zLrL4KQE/hHxWL+Ae41J6fqKbEf+uyLImjXl59KkmfgTjANcbgZg2jVapXwF3HPrLthRIssRIceegDZ+R6WCsFkdDc4xZyg3FS0Z1jX2IcOjgqCLJQu+taeb5Ykl8+T6sliCLkqrk1HQipGf89PJuQUqE2Va8vL1xT7jkEQcE4fqtfn0B0OTw87lsUQysphMX0fhxI58ur3s+zjVUovln3XFMUzcv0cJ3CasvmVz/e5m42WI7IYwpL2JYQ8LIaU2re7sxBKUukLMNThJYg4QAo1gHL8bHntmuL8GRI2sphYylHSWipjB6xQvT3TCLyGC4OXH2qjOlT4F1/51p5CzaPMtRa6I4shBG95UMzjYCI0dSezFLbwRkXjj32+S5qCyUVC54OqXOLlF8+hMr9W4lC9c0YZlMVYKXiiUS4eyGx2hZ/duJRNiCdPr/ElheN5rlRSapuXriz7nr+USoswUCaLIvTQf9w6LDmtOsBUpePnvrUrTy8dHx9ffHrdt+x7eLxZ0tzNatvKwgiFarlcdVp3CETjFG3z2qWnz7/66qvrz58eX9MkMN8FuF9PFkbIkYOtI9lVdAeXVHhJkjRJcVuaTZDFEZa01oOaq0d2MoFAowiLs82+LIywKgv1R7K78r8j7p4wPE1GCSf3h5IUHBaJdLiCt3XnD145d/E6I5SNcHJEwh3vk/XwPE97PCdxQAgYvNgoJIblD+HuWiepOpeVno/YEI4tSaigbydwcj7mL8RSasqU0KvutBgR3O7APkdxMpoocCQZwtWwiVAjs5vpym6zN37yt6dAe8JxY96yQDKJmD91tX0UoLV+pKHDhH9ToE5G9WXBiIAGQ20iEU7ChTMe/L+3k47DWSOI+EQYXJmAWUAw15EqWFwLnjFJBd+HOZ8beDS9zH6SudFmn72MAucVxg2c2BGOTYh8OApG2jDGrQmloE04l4wPz+92BbIkY9vACaTK3sFh6ULIuJk3OARlzxdUOlcsw7/g7SCGwQ3dN8FAMiJwFO40GTOx4WR2jQvi/K7aDo6tWwhhZqtY3iFLlMRBzG5d4GmQBMnQApuu8IRJkJD+7wVKazX4fI3KlFj0hLYAv6HxeABPyXPjLsqOcFy64OKnCZyUkG3SOg6z8XE9nMQI1E6K4J1dQiF8msmcihQapIAR/q69286KcZ4b+jAXDBARfguS/C4s6oGO5QdJONnOnGZ2k2Gje+PYnkw+EBDN02V228mwOG401euAUCDRmN8f1cno/ZI4OWgkd0KhRCrlT6mJytU/6hJhj7IUaDuaUlWd1rjsabRSSSQKoT80wkGhOzBODQn0LMKnK5hd1YJaiUajER0f/hIXdwuVqOqPqSp8Ksl3z8ZRI5wpREOFgl+NRVQ1FA35Jfua2JZwTLrA8eyYv0E8oyYmUSMZQSdVQ6GQmvL7gSMbx9DAkUBG9ad2OBJuRAupVCGl4mKpaLLWGweVSyR8Cvcm4k+lALGSgHiWgNN4ZJIsVGJwrFCooKbUaL1zYThSEokW/AlVTYVClYq568h+zN9+LcaYYEqTqj+SaAdtCmQi7iB9YTvzXfa79qurcNP90TZaKnR7DdzX5W2HIgU1cprZKeA0eGRb7N5HJSjuhNRYTC1ETsHe2rsRttIBogHZ/QN8NLSTzH6bbe+EMp3lKDxJRgoxXEC+005ms9l2A9dfZe2v2n49zZhQEz+F66iEh6OEZMjBcCjhj1yNZI0AzwfjgfAruPXq1W+p4SE1EaoE9Y+7FbXQFgMQM/RdjFfqLrNSCBekHcK1DandsBGHSBr0ZhJ4wVSoYX2hRsIEA2wwIOpoExKR9NMQ3o+drE7iPPxKaOC+KpG39UP7NVFjHFHHPcuFkaf/glOEr4JaKhmdsKuWJaK/SuBWGQOSRC2L1vt17OpOk0UfSTo6xa2JDY2wtcRHmagaUaO7zWBHRWRb9ftDTSoYDXhfIdzVjbke3KiJETXiT0SzHvNsHl6HG5FqGMIUN5xOyIdDcOTTkdlPgdZxJVulHZdxuTYSSlSE2+wHZzOEYBsX2EQSv8fVFvhbD2OOFdhqQ1l/VYhFEpFwwHzQCRb3eLQG4QSRZd+hiV9JrKRiscKpTo3OgiseDwdWLdvm2DGEdqEGs2EEOTiL4NllowGepWbglgrm5npZrgYzcB2p06Ahkx3cD1zZhSaSxWAogljh4CdEVijBBKQ2RCqYqzcg9GZDKlxwDVggdMcaELp7js8pXBPXjFcyBiGSYMaqIFp9NMvbEo5bX2rntHAxKfC1MDGsIrC5GIiOEd16W6BGh8tD06HNq9iL7Bi9Qk4ijHAHrlEJtkOxiD/SWeDPGIK7KbxgKmg6ruGstAntF3CKALFgyJDi22zzn30RMW6NsF2ooUdX8c6Hohap/EHkZR38JlIZDGUymA6u39NRJei9Ym8VtyxILILsBhVSC0PUjYXCkmnejND0PhEyLNkNwTFCGdzCwH4HDgF305+K6JZFfpyIN7gQp7azcOPWeY86ouyheOdjGMl7AoGOsGI1BkFlwM856WaXsA1mGMsQT3eOWjZquypbmymUahnUyK7kEbqXB97H4gYRpJLG4pU/UdgVuxWOcZUlhpploWYtW4HIsxv02A7zeccRjjoiiWNRGktUrDoMhXlB2k3BVbbJwPgFqSVxDWYDYmkDV3tblp9Avfw12sKJoMhI4/cb1o17ZorYreENofop3j1/IgRhGq8fQ0Es1fBaPa4GHZ0aytpXKeP3W4yaqQQRA67rj1mriEHog3aY3wiD07kQaTDPE6pvA+H2wBJusRvdKYZZddfaa1HzNFmKJZjA8dlXbEl1ZTtM2MJHvF3JoOVonI5bqkOifVE6fs/MqJlKegSu+apB+SDfEXAP0AOLB9GhfEubBWZOhO3RU0+D/buOnunH0CsrcTxkKEwsSzc4McRqX4rjIZRTaiS8w6rBShi0pKObhAYyMsY5iLh264s9k/Y9jZopuCEExx0iWHIFtn1wVpDCiaUD5RQ5yIY7CuiGKu7jtpowzZhaUjidVfIi3zVS6PFIJpaIpSIBplY2GUVJlm1OKRgcW/g4QCNJxis1FStkqG33NGnv2ki+YNmw0A4O3SvZ1GHBqkNOqOnbLNAHBQ7rl4FVYByJ4L5gsaawhOePGlwvCkpwHyNqDGpf6zniD/B2RUHX2QIUdDuWoCkF2qhCuF+2Opy0/3DYTHGNRSwWDQ/rVpZZdA8lrfuyBAJeGIGgTgW9gAWN1a4gukeAMS4JPCtaokY/zkvN7QTWQoOnoXEsPFU4Be5ziDVY0GTZjwtmC2xF8hg39E4iHELhDLZFRB85iBDcLUCIfQWxFGcdZFz6Q9pRYMBqn417qDvxXobm2KopcMOAIptlGeZqykZ3KD1qJCLQXCV0SSbYxAv4rXRQ5uAWFQiXPObWSExnbaeAnwhv+7GxiNgvZpi8D3gommJviA+ZGT4Ix/EQGiMxUCJUpYIhcFB/JSFrRaJtIsnmuEfSmr+wyIokvsNpVAOtVG3HDUkROImQ5qtK4Y8FHAlij1ZgeV7iDK60nYol4E6QE7g5UFwE2ECYRGsPriYa8IFCJj6tr7AhHDJTqJ+h7G7blHOQGMCyEqFktYa9MXRLp2yZcDtABTmww6IltawqRKuOhLA7BMvHjJ4Kx3H0qUay24lQFi44BVV0VRKNIMVl37WakUmAb+5A1UIaWMVeFeM1icoBfTeUSoiZAssf09K9DeGgmQZ2INdWRteNgrFQVnn7QztZUTfEbCaEuf5qUpahNyJYUUUNuT8Wzp/ARUYiqFSpxgrUWCopGoaYbERTUIQ2VAi9EpHFaKMdhgaQiMlXcHNT2yL1UNZGQHPdDotidjdSSEXDCvgIlH12hNOeqWAxUwKmEsXyybCzdyIZmZBZemCdg34U2jHrUD5cgQvasVo8vBRhWR4zI2FbpNQEVLgV4CtkAydsrIuXIbDB8UCiUbTzyisRzYfztit4psLVaCWhqoWGWIN8q1b0qTWpHaHVTCUpjFm6YWvugqSRbxtIhpJIFK6eQgHCPI8mK6D55IBt65EEaAktBNQPiAX2VAncJ4wltnQaVROiLOmvQoWEiuUK7oDbbh+xWIX3ZLuiYkmcKoS2kwa2yYlYhAh2t34EaPiF/nWBc2Hijv3ebpsnJge41HC7EUmpaqqRSTZJTWJx0ENOIaaGBmI/JzXBvEQ0d2gQaa3ZjhQSlVSkwXZBy5LRbmzrMgTKejLTiKiJVGSnHTYkiWV06DB5PbkD9yMWyXyr16jCBqUi1I5w+vNp+krkBA2rxWjY9tG3OLQO1xqPE13XDRKkEn5XDEvBnGHAa0OKp0GisxFxfAwd+0kURVxhiatnCPxssF6W0gDBTyuBoNQdQsc0IdGAgeeB26FA64iD3obtit1RnpFXLErUsXBK6dNnoYfeMOa7cYde4nn7USRGNOk83IT3zPKcqL4SsX6GolSa5ysLP7XY4Iy+1PMfrJ9jkJr/tubNJspsz2vrRXmM3ZB1lMmrm/+mZLZn7vWUaBSAcFs/n9Ug5yIzPjexp0ScXPE3ApJkP4Ul8I7FDA8Cm0/rTKrNIaOXNOuzL7tKlEj29PTdmOkMqLfDziQbFk90HIsUT/6eyb+y/9zL3w3PrM38/NKOEiEb1aDYHWcRnB6LhmaTaPT/RDNQv5K4eXxC//Tn//sPf/nLZ5/9ag757M/VIcLZn0HbUaKgKISzMwb2S8F4FYvMIrFQpC3CyQGP4MHjJmfgT//275/9tznks78fmjp08BxhMydCqylznP1AgQcH/SKxGcQfbWQZmBdnvb3df7G/6Z///Vf/4FqAcPDaxqDYvzx9u6Ug6NsDo6i2EorGsprluIwt0NOjl//z//vVZy7lL//KD3xXu7PneU/f5wW9vTiLEGaeXcEQyLwlbv4R8Fb/9HduRR600nEkY16fuhgTW4upwnVoUGXk5OPrN29R3rz+eEK8HbMNeOOEc553eJ5wykCidvpcfbffMTMgpusjCDl7s7G6urKSQ1lZWd3beHNGesa6uHM5IXT5PUE2J417jXcb+yu5C1bJrexvvDMWeDvHc4z9zZzfLm3x/I8bqxsbFzYsfBsgFy6sbnxc/MkcEM57Y00NBuLi+71B9VkUufpehHfEAws6mVPC+ey044Ped3srY/hQVlY/es3AOh/iJIoJv3P9nWQ9QC95szpOgV01fk8C8XlNxu33Pc1zUqaZOABO5GOIbzrlqvuTuf7OrjlOijcVcsT3Y13QIntvzPzv3mQmM0z8rduTspsa975ezc1AeOHGa29gHpOZ57vz3CKaH/7YM9Ehzo3uS+YfudWP85jMXN9/6DJRmcnpZK+XA1duQEFz48YKIOFLK/DT3uqN3IXOG3IrJ8xQ5ziZe0JXpoOfi3vfdtNE7sbbD2cn+snZ6w2IrLmVjddnIvz04e2Nrm5X3pqu6OJcc38PqZuzBhngzf2OE66s3DTrbK/X+LC/svdB6bQW5GY3V+Z+OGPncqHE6dc/9R3OEfFDcfI+19UPKz8DZlcoQhXDAFnRbbxdNX1x5b3ZZS0ecBZCp9HGDKQ3O2Em95aYqYM1v3Evcxv4J+ub4uTtDdMVb9xk53LqE4v5TmeniOZZO16Y29OZtgLGidHvheNEPGJajOtmxtzImZ7o6lTzEzo8L1OZuG+qcPUdft579nZ/f/+NyGDj3pM38NPbM5YF390w86IomHIAAASBSURBVMe+6JxwYd+t7uzEZnB7Z/aDGxvMCd/tr2BO2AszwLMLqN+V/XdY2BkXLLfCmZnOBDgjoZMgZxK+7QTSN/iD+EMntf+AYebsB5br2U+g1O878fSt0xZjWiJ0RugAkd1ZvaOZPVatfN9voD6KH1n0xP9vvEHCbuWT052Z6YyAMxPOfmpGKHYu+wbLc3v9gm11td9t5PaYzXZeWHXmiLMCzk4487m9eNldxawywv0LG9YxjJ7sDxCaxamT+7hgwlkRGeGHFSvhWzs8TJWs9umq+4MDwtkBnRDOhsiz8uV1h3DlNX7w5g82TRQkCMzy8c5bN26wt84WahwAOiKcCdEk7MUWrMa8tq1+buV79rtOdbdx4/uZCZ0AOiOc6fwDhBv7aKZQpI4MR0GLQbB467phl3Cme3iOhNOzhnn+ng6hLMWf9QsXhmJNLveGsb/NDRJOvYczB1GXhFMRTcLXPZ2tvsZBU+/Z3oVhec/e2H19Y2U2P3QK6JxwqjOy+vpdjzAHxZk3HjhKDg8rgh/q+of+qytm2Tbl6I5c0CXhtNvMCM96oWUDsn7c+7tbt360umIOq7YVa/rvJJbJhA5d0DXhZDWyu3xyw0Kzp3tvgfxnf3Imt/d+b2Vwria3ejLboT8J4UQ1MkchG/3Lz628JUjY7AXU3HuRnL0fItwgUwaj3CjQPeGEKzEv5E2PJofD2khIxP1cR13QYsTPBnNk7s2U3sJxiJmTcMK14C/jN/vjaCB7t2/dvmWAd64g8B7LkScWQihbb9ycONrmUoFzEXoDYxhZj290x/NX/vofILdMuf3XjdzGqlmAfhwMrqsG6nCMG/KuPHBuwnGmao41dTLiyn/e6snt27du/TW3+j0zR3Flw0rYyYZTd2Z/YsIxpsoIT/aYD1oJUf66+pbgQJsxwAdGKpqXs1ADXQShrakyM4VYw3r5DdAcKq8j4oYeiFsHxM0wY4522BnpPAa6EEI7RvOm6/tskiK38v79+w1AvP3jkXFEvMSLs9rfDwXSfZ19ZvRQ8/ItgtCGES8r4O1UZCx6IuHGO6xQA2wIcaib2vtgO1q6AL7FEHqHI4SpRNK3xFUkfA+dlDleejY8cWo2IEMqnCu+9GVBhMBovTxzKZS+MUiYu4CTaIG4uDIwcbqBZd2wCvkF8S2QcMBYzamL+Fl39GLlR7RSgMFcf7Yx1A4z3catKlyIeXZkgYReC2RHAzdXc5050B9/xNGK3H7u7YUhH8x1JmV6lr5IPO+iCb09a+1c5c39rhY7lplbGW4Tf7hpXaiwOOvsysIJQQLBnit25igGUt/gj2C48a4TBherPVPOgxAl2F0Tpb+5AQljdDTRHNrfe6N3PrB45XXkvAh7Eo/jxNPomDdkSZx+Iud9/vMnBDFe7w17HyKurrw2esuhz0/OX4f4h/5hY3/FmgVzN/Y3Pujec8fzfhodohDxA+SJ1Rsoq6sX3n4Qz98+TflUhGytiXj28d27dx/PcEq/tyXhvOVTEXo/HdKQfELCn0h+Ifz5yy+EP3/5/1HZTmagktGWAAAAAElFTkSuQmCC;" vertex="1" parent="1">
          <mxGeometry x="95" y="130" width="80" height="80" as="geometry" />
        </mxCell>
      </root>
    </mxGraphModel>
  </diagram>
</mxfile>
